<svg width="200" height="50" viewBox="0 0 200 50" fill="none" xmlns="http://www.w3.org/2000/svg">
<path d="M73.7432 27C73.7432 28.7448 73.4124 30.2292 72.751 31.4531C72.0947 32.6771 71.1989 33.612 70.0635 34.2578C68.9333 34.8984 67.6624 35.2187 66.251 35.2187C64.8291 35.2187 63.5531 34.8958 62.4229 34.25C61.2926 33.6042 60.3994 32.6693 59.7432 31.4453C59.0869 30.2214 58.7588 28.7396 58.7588 27C58.7588 25.2552 59.0869 23.7708 59.7432 22.5469C60.3994 21.3229 61.2926 20.3906 62.4229 19.75C63.5531 19.1042 64.8291 18.7812 66.251 18.7812C67.6624 18.7812 68.9333 19.1042 70.0635 19.75C71.1989 20.3906 72.0947 21.3229 72.751 22.5469C73.4124 23.7708 73.7432 25.2552 73.7432 27ZM70.3135 27C70.3135 25.8698 70.1442 24.9167 69.8057 24.1406C69.4723 23.3646 69.001 22.776 68.3916 22.375C67.7822 21.974 67.0687 21.7734 66.251 21.7734C65.4333 21.7734 64.7197 21.974 64.1104 22.375C63.501 22.776 63.027 23.3646 62.6885 24.1406C62.3551 24.9167 62.1885 25.8698 62.1885 27C62.1885 28.1302 62.3551 29.0833 62.6885 29.8594C63.027 30.6354 63.501 31.224 64.1104 31.625C64.7197 32.026 65.4333 32.2266 66.251 32.2266C67.0687 32.2266 67.7822 32.026 68.3916 31.625C69.001 31.224 69.4723 30.6354 69.8057 29.8594C70.1442 29.0833 70.3135 28.1302 70.3135 27ZM78.1045 35H74.4795L80.0029 19H84.3623L89.8779 35H86.2529L82.2451 22.6562H82.1201L78.1045 35ZM77.8779 28.7109H86.4404V31.3516H77.8779V28.7109ZM100.118 23.6016C100.056 22.9714 99.7874 22.4818 99.3135 22.1328C98.8395 21.7839 98.1963 21.6094 97.3838 21.6094C96.8317 21.6094 96.3656 21.6875 95.9854 21.8437C95.6051 21.9948 95.3135 22.2057 95.1104 22.4766C94.9124 22.7474 94.8135 23.0547 94.8135 23.3984C94.8031 23.6849 94.863 23.9349 94.9932 24.1484C95.1286 24.362 95.3135 24.5469 95.5479 24.7031C95.7822 24.8542 96.0531 24.987 96.3604 25.1016C96.6676 25.2109 96.9958 25.3047 97.3447 25.3828L98.7822 25.7266C99.4801 25.8828 100.121 26.0911 100.704 26.3516C101.287 26.612 101.793 26.9323 102.22 27.3125C102.647 27.6927 102.978 28.1406 103.212 28.6562C103.451 29.1719 103.574 29.763 103.579 30.4297C103.574 31.4089 103.324 32.2578 102.829 32.9766C102.34 33.6901 101.631 34.2448 100.704 34.6406C99.7822 35.0312 98.6702 35.2266 97.3682 35.2266C96.0765 35.2266 94.9515 35.0286 93.9932 34.6328C93.04 34.237 92.2952 33.651 91.7588 32.875C91.2275 32.0937 90.9489 31.1276 90.9229 29.9766H94.1963C94.2327 30.513 94.3864 30.9609 94.6572 31.3203C94.9333 31.6745 95.3005 31.9427 95.7588 32.125C96.2223 32.3021 96.7458 32.3906 97.3291 32.3906C97.902 32.3906 98.3994 32.3073 98.8213 32.1406C99.2484 31.974 99.5791 31.7422 99.8135 31.4453C100.048 31.1484 100.165 30.8073 100.165 30.4219C100.165 30.0625 100.058 29.7604 99.8447 29.5156C99.6364 29.2708 99.3291 29.0625 98.9229 28.8906C98.5218 28.7187 98.0296 28.5625 97.4463 28.4219L95.7041 27.9844C94.3551 27.6562 93.29 27.1432 92.5088 26.4453C91.7275 25.7474 91.3395 24.8073 91.3447 23.625C91.3395 22.6562 91.5973 21.8099 92.1182 21.0859C92.6442 20.362 93.3656 19.7969 94.2822 19.3906C95.1989 18.9844 96.2406 18.7812 97.4072 18.7812C98.5947 18.7812 99.6312 18.9844 100.517 19.3906C101.407 19.7969 102.1 20.362 102.595 21.0859C103.09 21.8099 103.345 22.6484 103.36 23.6016H100.118ZM109.237 19V35H105.854V19H109.237ZM120.7 23.6016C120.638 22.9714 120.369 22.4818 119.896 22.1328C119.422 21.7839 118.778 21.6094 117.966 21.6094C117.414 21.6094 116.948 21.6875 116.567 21.8437C116.187 21.9948 115.896 22.2057 115.692 22.4766C115.494 22.7474 115.396 23.0547 115.396 23.3984C115.385 23.6849 115.445 23.9349 115.575 24.1484C115.711 24.362 115.896 24.5469 116.13 24.7031C116.364 24.8542 116.635 24.987 116.942 25.1016C117.25 25.2109 117.578 25.3047 117.927 25.3828L119.364 25.7266C120.062 25.8828 120.703 26.0911 121.286 26.3516C121.869 26.612 122.375 26.9323 122.802 27.3125C123.229 27.6927 123.56 28.1406 123.794 28.6562C124.034 29.1719 124.156 29.763 124.161 30.4297C124.156 31.4089 123.906 32.2578 123.411 32.9766C122.922 33.6901 122.213 34.2448 121.286 34.6406C120.364 35.0312 119.252 35.2266 117.95 35.2266C116.659 35.2266 115.534 35.0286 114.575 34.6328C113.622 34.237 112.877 33.651 112.341 32.875C111.81 32.0937 111.531 31.1276 111.505 29.9766H114.778C114.815 30.513 114.968 30.9609 115.239 31.3203C115.515 31.6745 115.882 31.9427 116.341 32.125C116.804 32.3021 117.328 32.3906 117.911 32.3906C118.484 32.3906 118.981 32.3073 119.403 32.1406C119.83 31.974 120.161 31.7422 120.396 31.4453C120.63 31.1484 120.747 30.8073 120.747 30.4219C120.747 30.0625 120.64 29.7604 120.427 29.5156C120.218 29.2708 119.911 29.0625 119.505 28.8906C119.104 28.7187 118.612 28.5625 118.028 28.4219L116.286 27.9844C114.937 27.6562 113.872 27.1432 113.091 26.4453C112.31 25.7474 111.922 24.8073 111.927 23.625C111.922 22.6562 112.179 21.8099 112.7 21.0859C113.226 20.362 113.948 19.7969 114.864 19.3906C115.781 18.9844 116.823 18.7812 117.989 18.7812C119.177 18.7812 120.213 18.9844 121.099 19.3906C121.989 19.7969 122.682 20.362 123.177 21.0859C123.672 21.8099 123.927 22.6484 123.942 23.6016H120.7Z" fill="#344054"/>
<path d="M140.208 23.6016C140.146 22.9714 139.877 22.4818 139.403 22.1328C138.929 21.7839 138.286 21.6094 137.474 21.6094C136.922 21.6094 136.455 21.6875 136.075 21.8437C135.695 21.9948 135.403 22.2057 135.2 22.4766C135.002 22.7474 134.903 23.0547 134.903 23.3984C134.893 23.6849 134.953 23.9349 135.083 24.1484C135.218 24.362 135.403 24.5469 135.638 24.7031C135.872 24.8542 136.143 24.987 136.45 25.1016C136.757 25.2109 137.086 25.3047 137.435 25.3828L138.872 25.7266C139.57 25.8828 140.211 26.0911 140.794 26.3516C141.377 26.612 141.882 26.9323 142.31 27.3125C142.737 27.6927 143.067 28.1406 143.302 28.6562C143.541 29.1719 143.664 29.763 143.669 30.4297C143.664 31.4089 143.414 32.2578 142.919 32.9766C142.429 33.6901 141.721 34.2448 140.794 34.6406C139.872 35.0312 138.76 35.2266 137.458 35.2266C136.166 35.2266 135.041 35.0286 134.083 34.6328C133.13 34.237 132.385 33.651 131.849 32.875C131.317 32.0937 131.039 31.1276 131.013 29.9766H134.286C134.323 30.513 134.476 30.9609 134.747 31.3203C135.023 31.6745 135.39 31.9427 135.849 32.125C136.312 32.3021 136.836 32.3906 137.419 32.3906C137.992 32.3906 138.489 32.3073 138.911 32.1406C139.338 31.974 139.669 31.7422 139.903 31.4453C140.138 31.1484 140.255 30.8073 140.255 30.4219C140.255 30.0625 140.148 29.7604 139.935 29.5156C139.726 29.2708 139.419 29.0625 139.013 28.8906C138.612 28.7187 138.119 28.5625 137.536 28.4219L135.794 27.9844C134.445 27.6562 133.38 27.1432 132.599 26.4453C131.817 25.7474 131.429 24.8073 131.435 23.625C131.429 22.6562 131.687 21.8099 132.208 21.0859C132.734 20.362 133.455 19.7969 134.372 19.3906C135.289 18.9844 136.33 18.7812 137.497 18.7812C138.685 18.7812 139.721 18.9844 140.606 19.3906C141.497 19.7969 142.19 20.362 142.685 21.0859C143.179 21.8099 143.435 22.6484 143.45 23.6016H140.208ZM160.062 24.6016H156.64C156.577 24.1589 156.45 23.7656 156.257 23.4219C156.064 23.0729 155.817 22.776 155.515 22.5312C155.213 22.2865 154.864 22.099 154.468 21.9687C154.077 21.8385 153.653 21.7734 153.194 21.7734C152.366 21.7734 151.645 21.9792 151.03 22.3906C150.416 22.7969 149.939 23.3906 149.601 24.1719C149.262 24.9479 149.093 25.8906 149.093 27C149.093 28.1406 149.262 29.099 149.601 29.875C149.944 30.651 150.424 31.237 151.038 31.6328C151.653 32.0286 152.364 32.2266 153.171 32.2266C153.624 32.2266 154.043 32.1667 154.429 32.0469C154.819 31.9271 155.166 31.7526 155.468 31.5234C155.77 31.2891 156.02 31.0052 156.218 30.6719C156.421 30.3385 156.562 29.9583 156.64 29.5312L160.062 29.5469C159.973 30.2812 159.752 30.9896 159.397 31.6719C159.049 32.349 158.577 32.9557 157.983 33.4922C157.395 34.0234 156.692 34.4453 155.874 34.7578C155.062 35.0651 154.142 35.2187 153.116 35.2187C151.689 35.2187 150.413 34.8958 149.288 34.25C148.168 33.6042 147.283 32.6693 146.632 31.4453C145.986 30.2214 145.663 28.7396 145.663 27C145.663 25.2552 145.991 23.7708 146.647 22.5469C147.304 21.3229 148.194 20.3906 149.319 19.75C150.444 19.1042 151.71 18.7812 153.116 18.7812C154.043 18.7812 154.903 18.9115 155.694 19.1719C156.491 19.4323 157.197 19.8125 157.812 20.3125C158.426 20.8073 158.926 21.4141 159.312 22.1328C159.702 22.8516 159.952 23.6745 160.062 24.6016ZM164.944 35H161.319L166.843 19H171.202L176.718 35H173.093L169.085 22.6562H168.96L164.944 35ZM164.718 28.7109H173.28V31.3516H164.718V28.7109ZM192.026 19V35H189.104L182.144 24.9297H182.026V35H178.644V19H181.612L188.519 29.0625H188.659V19H192.026Z" fill="#175CD3"/>
<path d="M49.6493 9.68646C49.6493 19.9454 49.6493 30.194 49.6493 40.453C49.6287 40.4841 49.5979 40.5152 49.5876 40.5463C49.3507 40.9198 49.083 41.1791 48.5785 41.1376C47.8268 41.065 47.0751 41.0443 46.3235 41.0131C43.8625 40.8887 41.3913 40.7538 38.9304 40.6293C35.1411 40.4322 31.3519 40.2248 27.5627 40.0381C27.3774 40.0277 27.1611 40.1003 27.017 40.204C25.4416 41.3139 23.8764 42.4342 22.3113 43.5545C22.1878 43.5545 22.0745 43.5545 21.9509 43.5545C21.8274 43.3989 21.7759 43.2226 21.8789 43.0359C21.9304 42.9322 21.9612 42.8077 22.0127 42.7039C23.1042 40.6812 24.2059 38.6688 25.3077 36.6461C25.6269 36.0652 26.0285 35.8992 26.6772 35.9511C27.5318 36.0133 28.407 36.0963 29.2514 36.0237C35.0382 35.5258 39.2702 30.2251 38.5597 24.4162C37.8492 18.6177 32.5669 14.5099 26.811 15.3917C22.8159 16.0037 20.0049 18.2857 18.6148 22.103C17.2247 25.9307 17.9661 29.4679 20.5815 32.5902C21.2199 33.3578 21.9921 33.9698 22.8262 34.5092C23.238 34.7789 23.3822 35.2353 23.1866 35.6191C22.5894 36.7394 22.0024 37.8701 21.3949 38.98C21.189 39.3638 20.8492 39.6543 20.3961 39.6335C18.8516 39.5816 17.3071 39.4779 15.7626 39.3949C13.2193 39.2601 10.676 39.1149 8.12235 39.0008C7.75167 38.98 7.46336 38.8763 7.23683 38.5962C7.15445 38.4925 7.08237 38.3784 7 38.2643C7 29.4679 7 20.6612 7 11.8648C7.04119 11.8129 7.08237 11.7611 7.11326 11.6988C7.3089 11.4291 7.50454 11.1594 7.87523 11.1387C9.45064 11.0557 11.0158 10.9727 12.5912 10.8897C15.083 10.7653 17.5851 10.6304 20.0769 10.5059C23.3307 10.3296 26.5845 10.1533 29.8486 9.98728C32.3404 9.85243 34.8425 9.72796 37.3344 9.60348C41.0824 9.40639 44.8304 9.2093 48.5785 9.00184C48.98 8.9811 49.2478 9.13669 49.4743 9.41676C49.5464 9.49975 49.5979 9.59311 49.6493 9.68646Z" fill="#175CD3"/>
<path d="M28.4277 33.7931C30.0134 33.4093 31.3417 32.5795 32.3405 31.2932C34.0395 29.0941 34.719 26.6253 34.0498 23.8661C33.8541 23.0466 33.4525 22.3205 32.9068 21.6877C31.1667 19.6235 28.3041 19.665 26.5743 21.75C24.5458 24.2084 24.8547 28.3058 27.2436 30.2663C27.2745 30.2974 27.3054 30.3389 27.3671 30.4011C26.7184 30.5048 26.1315 30.4115 25.5858 30.1418C24.3399 29.5401 23.6397 28.4821 23.2896 27.1855C22.5276 24.3329 23.9486 20.1318 27.4083 18.6381C30.0546 17.497 33.1128 18.4098 34.8941 20.8579C38.4259 25.7229 35.6869 32.6313 29.7869 33.7205C29.3441 33.8035 28.8911 33.8242 28.4483 33.8761C28.438 33.845 28.438 33.8139 28.4277 33.7931Z" fill="#175CD3"/>
<path d="M29.2928 20.9619C29.8179 20.8582 30.2916 20.9101 30.7549 21.0864C32.1141 21.5947 32.9069 22.6424 33.3085 23.9909C33.8542 25.8477 33.535 27.6422 32.6907 29.3434C31.8052 31.1275 30.4563 32.4242 28.5205 32.9843C25.9463 33.7312 23.2177 32.6524 21.6319 30.3288C18.3473 25.495 20.9935 18.877 26.6877 17.684C27.1819 17.5803 27.6968 17.5596 28.2219 17.5596C28.2013 17.5699 28.1704 17.5907 28.1498 17.6011C25.4932 18.3272 23.8046 20.101 22.8882 22.6527C22.2601 24.3747 22.1056 26.1381 22.7337 27.9015C23.0529 28.8144 23.5574 29.6131 24.2988 30.2355C26.0802 31.7499 28.5617 31.4699 30.0959 29.6131C32.1141 27.165 31.8052 23.0573 29.406 21.0968C29.3648 21.0553 29.3442 21.0138 29.2928 20.9619Z" fill="#175CD3"/>
</svg>
