<svg t="1729450314760" class="icon" viewBox="0 0 1024 1024" version="1.1" xmlns="http://www.w3.org/2000/svg" p-id="3840" width="200" height="200"><path d="M512.663704 113.777778a187.733333 187.733333 0 0 1 94.814815 349.582222L512 519.68l-94.814815-56.414815A187.828148 187.828148 0 0 1 512.663704 113.777778m0 417.185185l106.382222 35.081481A327.86963 327.86963 0 0 1 834.37037 798.340741l0.474074 1.991111 0.663704 1.896296A82.488889 82.488889 0 0 1 756.811852 910.222222H267.188148a82.488889 82.488889 0 0 1-78.317037-107.899259l0.663704-1.896296 0.474074-1.991111a327.111111 327.111111 0 0 1 215.608889-232.201482L512.568889 530.962963m0-474.074074a244.717037 244.717037 0 0 0-124.586667 455.111111 384 384 0 0 0-253.25037 272.782222 139.377778 139.377778 0 0 0 132.740741 182.328889h489.339259a139.377778 139.377778 0 0 0 132.740741-182.423704A384.758519 384.758519 0 0 0 636.776296 512 244.622222 244.622222 0 0 0 512.663704 56.888889z" fill="#7C7D7F" p-id="3841"></path><path d="M415.668148 819.674074L512 908.231111l96.331852-88.557037-81.540741-191.620741a15.739259 15.739259 0 0 1 3.223704-17.066666 227.555556 227.555556 0 0 0 37.925926-62.957037 90.548148 90.548148 0 0 0-52.622222-18.394074h-7.300741a91.211852 91.211852 0 0 0-52.811852 18.962963 226.891852 226.891852 0 0 0 38.4 62.957037 15.644444 15.644444 0 0 1 3.128889 16.971851l-81.540741 191.620741z" fill="#7C7D7F" p-id="3842"></path></svg>