<svg t="1729451602084" class="icon" viewBox="0 0 1024 1024" version="1.1" xmlns="http://www.w3.org/2000/svg" p-id="4985" width="200" height="200"><path d="M512 113.777778c219.97037 0 398.222222 178.251852 398.222222 398.222222S731.97037 910.222222 512 910.222222 113.777778 731.97037 113.777778 512s178.251852-398.222222 398.222222-398.222222m0-56.888889C260.740741 56.888889 56.888889 260.740741 56.888889 512s203.851852 455.111111 455.111111 455.111111 455.111111-203.851852 455.111111-455.111111S763.259259 56.888889 512 56.888889z" fill="#7C7D7F" p-id="4986"></path><path d="M551.822222 279.703704l-16.118518 53.096296-4.740741 16.118519 4.740741 16.118518 78.696296 263.585185-103.348148 100.503704-101.451852-99.555556 78.696296-264.533333 4.740741-17.066667-4.740741-16.118518-17.066666-51.2h80.592592m49.303704-57.837037h-180.148148c-6.637037 0-12.325926 2.844444-17.066667 9.481481-3.792593 6.637037-6.637037 14.222222-1.896296 20.85926l31.288889 95.762963-83.437037 280.651851c-1.896296 9.481481 0 19.911111 6.637037 27.496297l142.222222 138.429629c1.896296 2.844444 8.533333 4.740741 12.325926 4.740741s8.533333-2.844444 12.325926-4.740741l144.118518-138.429629c6.637037-7.585185 8.533333-17.066667 6.637037-27.496297l-83.437037-280.651851 29.392593-95.762963c1.896296-6.637037 1.896296-16.118519-1.896296-20.85926-4.740741-4.740741-11.377778-9.481481-17.066667-9.481481zM714.903704 390.637037c-7.585185 0-14.222222-2.844444-19.911111-8.533333-11.377778-11.377778-11.377778-29.392593 0-39.822223l113.777777-113.777777c11.377778-11.377778 29.392593-11.377778 39.822223 0s11.377778 29.392593 0 39.822222l-113.777778 113.777778c-4.740741 5.688889-12.325926 8.533333-19.911111 8.533333zM726.281481 539.496296c-7.585185 0-14.222222-2.844444-19.911111-8.533333-11.377778-11.377778-11.377778-29.392593 0-39.822222l170.666667-170.666667c11.377778-11.377778 29.392593-11.377778 39.822222 0s11.377778 29.392593 0 39.822222l-170.666666 170.666667c-5.688889 5.688889-13.274074 8.533333-19.911112 8.533333z" fill="#7C7D7F" p-id="4987"></path></svg>