<svg t="1729450501938" class="icon" viewBox="0 0 1024 1024" version="1.1" xmlns="http://www.w3.org/2000/svg" p-id="4329" width="200" height="200"><path d="M512 620.278519a53.94963 53.94963 0 0 1-27.022222-7.300741l-410.453334-237.037037v-5.404445l-2.37037-3.508148A54.897778 54.897778 0 0 1 66.37037 325.214815a53.665185 53.665185 0 0 1 25.220741-32.805926l393.481482-227.555556A52.717037 52.717037 0 0 1 540.444444 64.284444l392.533334 227.555556a53.94963 53.94963 0 0 1 0 93.582222l-393.860741 227.555556a53.94963 53.94963 0 0 1-27.117037 7.300741zM121.931852 339.057778l390.637037 225.754074 389.783704-225.943704L512 112.545185z m782.885926-1.801482z" fill="#7C7D7F" p-id="4330"></path><path d="M932.693333 463.644444L891.259259 439.656296l-55.656296 32.142223 66.37037 38.779259-389.499259 225.754074-390.542222-225.659259 66.37037-38.684445L132.740741 439.845926l-41.528889 24.177778A53.665185 53.665185 0 0 0 66.37037 496.82963a54.802963 54.802963 0 0 0 5.783704 41.718518c0.758519 1.232593 1.517037 2.37037 2.37037 3.508148v5.404445l410.453334 237.037037a53.665185 53.665185 0 0 0 26.927407 7.300741 53.94963 53.94963 0 0 0 27.306667-7.395556l393.860741-227.555556a53.94963 53.94963 0 0 0 0-93.582222z m-27.875555 45.416297z" fill="#7C7D7F" p-id="4331"></path><path d="M932.693333 638.862222L891.259259 614.874074l-55.656296 32.142222 66.37037 38.77926-389.499259 225.848888-390.542222-225.754074 66.37037-38.684444L132.740741 615.158519l-41.528889 24.177777A53.665185 53.665185 0 0 0 66.37037 672.047407a54.802963 54.802963 0 0 0 5.783704 41.718519c0.758519 1.232593 1.517037 2.37037 2.37037 3.508148v5.404445l410.453334 237.037037a53.665185 53.665185 0 0 0 26.927407 7.30074 53.94963 53.94963 0 0 0 27.306667-7.395555l393.860741-227.555556a53.94963 53.94963 0 0 0 0-93.582222z m-27.875555 45.416297z" fill="#7C7D7F" p-id="4332"></path></svg>